<svg viewBox="0 0 429.4 77.4" xmlns="http://www.w3.org/2000/svg" fill="#000"><g id="svgGroup"  font-size="9pt" fill="#000"><path d="M 14.6 72.1 L 0 75.5 Q 2.8 61.4 5.4 48 Q 6.4 42.4 7.55 36.25 Q 8.7 30.1 9.7 24.15 Q 10.7 18.2 11.55 12.65 Q 12.4 7.1 12.9 2.5 Q 16 2.3 18.9 2.1 Q 21.5 1.9 24.2 1.75 A 151.457 151.457 0 0 0 26.448 1.609 Q 27.819 1.513 29 1.4 Q 30.3 9.1 31.3 16.1 Q 31.8 19.1 32.35 22.35 Q 32.9 25.6 33.4 28.6 Q 33.9 31.6 34.4 34.35 Q 34.83 36.713 35.259 38.597 A 65.801 65.801 0 0 0 35.4 39.2 Q 35.744 37.395 36.161 35.111 A 830.918 830.918 0 0 0 36.3 34.35 Q 36.8 31.6 37.4 28.55 Q 38 25.5 38.65 22.3 A 2133.828 2133.828 0 0 0 39.749 16.853 A 1934.386 1934.386 0 0 0 39.9 16.1 Q 41.4 9.1 43 1.5 L 55.2 0 Q 51.8 15 49.2 28.4 Q 48 34.2 46.85 40.1 Q 45.7 46 44.7 51.5 Q 43.7 57 43 61.65 A 455.634 455.634 0 0 0 42.517 64.934 Q 42.334 66.217 42.179 67.358 A 216.935 216.935 0 0 0 41.9 69.5 A 1.452 1.452 0 0 0 41.726 69.516 Q 41.216 69.584 39.55 69.95 A 594.143 594.143 0 0 0 37.641 70.372 Q 36.666 70.59 35.583 70.834 A 1018.838 1018.838 0 0 0 34.85 71 Q 32.2 71.6 29.55 72.25 Q 27.521 72.748 26.284 73.099 A 32.584 32.584 0 0 0 25.6 73.3 Q 24.9 65.2 24.1 57.9 A 263.571 263.571 0 0 0 23.498 52.322 A 290.409 290.409 0 0 0 23.4 51.5 Q 23 48.2 22.65 45.2 Q 22.3 42.2 21.95 39.55 A 192.357 192.357 0 0 0 21.695 37.682 Q 21.591 36.954 21.492 36.308 A 90.769 90.769 0 0 0 21.3 35.1 Q 21.094 36.338 20.793 37.953 A 266.231 266.231 0 0 1 20.5 39.5 Q 20 42.1 19.5 45.05 Q 19 48 18.5 51.15 Q 18 54.3 17.4 57.3 Q 16.1 64.4 14.6 72.1 Z M 230.4 72.1 L 215.8 75.5 A 3607.132 3607.132 0 0 0 220.82 50.989 A 3262.816 3262.816 0 0 0 221.5 47.6 A 951.149 951.149 0 0 1 223.365 37.144 A 1053.786 1053.786 0 0 1 223.65 35.6 Q 224.8 29.4 225.8 23.35 Q 226.8 17.3 227.6 11.75 A 220.028 220.028 0 0 0 228.295 6.502 Q 228.598 3.968 228.8 1.7 A 41.082 41.082 0 0 0 229.719 1.761 Q 230.438 1.8 231 1.8 L 233.1 1.8 Q 234.063 1.8 235.309 1.776 A 197.938 197.938 0 0 0 236.5 1.75 Q 238.5 1.7 240.5 1.6 Q 242.5 1.5 244.8 1.4 A 475.994 475.994 0 0 1 246.731 11.619 A 422.076 422.076 0 0 1 247.3 14.9 Q 248.4 20.6 249.55 26.6 A 673.089 673.089 0 0 0 250.377 30.847 Q 250.707 32.511 251.013 33.999 A 336.46 336.46 0 0 0 251.6 36.8 A 346.539 346.539 0 0 0 251.969 34.926 Q 252.156 33.962 252.361 32.882 A 620.737 620.737 0 0 0 252.5 32.15 A 312.127 312.127 0 0 1 253.306 28.034 A 358.681 358.681 0 0 1 253.6 26.6 Q 254.2 23.7 254.75 20.75 Q 255.3 17.8 255.9 14.9 Q 257.3 8.4 258.8 1.5 L 271 0 Q 267.6 15.3 265 29 Q 263.8 34.9 262.65 40.95 A 1275.455 1275.455 0 0 0 261.009 49.744 A 1116.437 1116.437 0 0 0 260.5 52.55 Q 259.5 58.1 258.8 62.85 A 573.88 573.88 0 0 0 258.469 65.128 Q 258.015 68.295 257.72 70.644 A 200.865 200.865 0 0 0 257.7 70.8 A 1.452 1.452 0 0 0 257.526 70.816 Q 257.016 70.884 255.35 71.25 A 594.143 594.143 0 0 0 253.441 71.672 Q 252.466 71.89 251.383 72.134 A 1018.838 1018.838 0 0 0 250.65 72.3 L 245.35 73.5 A 60.774 60.774 0 0 0 244.109 73.794 Q 242.798 74.12 241.921 74.414 A 12.664 12.664 0 0 0 241.4 74.6 Q 240.8 66.6 240.1 59.4 Q 239.8 56.3 239.45 53.05 Q 239.1 49.8 238.7 46.8 Q 238.3 43.8 237.9 41.2 A 111.661 111.661 0 0 0 237.6 39.348 Q 237.35 37.888 237.1 36.7 Q 236.894 38.006 236.593 39.596 A 147.272 147.272 0 0 1 236.3 41.1 Q 235.8 43.6 235.3 46.4 Q 234.8 49.2 234.3 52.25 Q 233.8 55.3 233.2 58.1 Q 231.9 64.8 230.4 72.1 Z M 131 72 L 115.6 75.2 Q 118.4 61.2 121 47.9 A 3527.248 3527.248 0 0 1 122.556 39.097 A 3952.388 3952.388 0 0 1 123.1 36.05 Q 124.2 29.9 125.15 23.9 A 1548.346 1548.346 0 0 0 126.736 13.668 A 1411.326 1411.326 0 0 0 126.95 12.25 Q 127.8 6.6 128.3 2 Q 130.6 2.1 132.55 2.25 Q 134.5 2.4 136.4 2.5 Q 138.3 2.6 140.25 2.65 Q 142.2 2.7 144.5 2.7 Q 142.8 9.8 141.15 16.9 Q 139.5 24 138.1 31.2 L 148 30.1 A 467.099 467.099 0 0 0 149.931 19.703 A 419.607 419.607 0 0 0 150.5 16.35 A 161.645 161.645 0 0 1 152.544 6.122 A 183.129 183.129 0 0 1 153.4 2.6 Q 155.7 2.2 158.5 1.95 Q 161.3 1.7 163.7 1.5 A 776.357 776.357 0 0 0 165.395 1.357 Q 166.057 1.3 166.646 1.249 A 371.923 371.923 0 0 0 167.75 1.15 L 169.4 1 A 128.428 128.428 0 0 0 167.872 6.331 A 161.526 161.526 0 0 0 166.75 10.85 A 472.373 472.373 0 0 0 164.601 20.519 A 521.712 521.712 0 0 0 164.3 21.95 Q 163.1 27.7 162 33.6 Q 160.9 39.5 160 44.8 Q 157.8 57.5 155.9 70.8 L 140.3 72.6 A 302.229 302.229 0 0 0 142.474 61.614 A 276.427 276.427 0 0 0 142.6 60.9 Q 143.6 56.1 144.65 50.9 A 329.005 329.005 0 0 0 145.374 47.211 Q 145.65 45.762 145.881 44.459 A 166.051 166.051 0 0 0 146.3 42 L 136.6 42.9 A 1281.328 1281.328 0 0 1 135.94 46.455 Q 135.484 48.888 134.95 51.7 Q 134 56.7 133.2 61.2 L 131 72 Z M 121.7 17.5 L 108 20.1 A 24.645 24.645 0 0 0 107.446 18.032 Q 106.799 16.002 105.932 14.815 A 5.772 5.772 0 0 0 105.6 14.4 Q 104.1 12.7 102.2 12.7 A 4.321 4.321 0 0 0 100.339 13.158 Q 98.928 13.83 97.379 15.486 A 20.204 20.204 0 0 0 96.7 16.25 Q 93.7 19.8 91.1 25.4 A 71.949 71.949 0 0 0 87.903 33.62 A 85.91 85.91 0 0 0 86.7 37.7 Q 84.9 44.4 84.7 50.9 Q 84.7 55.936 85.921 58.63 A 6.995 6.995 0 0 0 86.55 59.75 Q 88.4 62.4 91.3 62.4 A 8.904 8.904 0 0 0 93.826 62.019 A 11.711 11.711 0 0 0 95.45 61.4 A 12.136 12.136 0 0 0 99.18 58.679 A 13.834 13.834 0 0 0 99.3 58.55 A 16.683 16.683 0 0 0 101.849 54.862 A 19.05 19.05 0 0 0 102.15 54.25 A 13.401 13.401 0 0 0 103.372 49.44 A 15.507 15.507 0 0 0 103.4 48.9 L 92.7 50.5 L 94.6 40.6 Q 99.3 40 103.8 39.4 Q 107.6 38.9 111.85 38.2 Q 116.1 37.5 119.3 36.9 A 63.901 63.901 0 0 1 118.102 45.74 Q 117.079 50.58 115.3 54.65 Q 112 62.2 107.35 67.3 A 36.014 36.014 0 0 1 102.369 71.868 A 28.386 28.386 0 0 1 97.35 74.9 A 29.026 29.026 0 0 1 92.774 76.609 Q 89.922 77.394 87.242 77.4 A 18.4 18.4 0 0 1 87.2 77.4 Q 83.5 77.4 80.15 75.8 Q 76.8 74.2 74.35 70.95 A 20.973 20.973 0 0 1 72.103 67.16 Q 71.24 65.305 70.591 63.114 A 35.07 35.07 0 0 1 70.5 62.8 A 34.209 34.209 0 0 1 69.495 57.833 Q 69.174 55.374 69.114 52.598 A 59.874 59.874 0 0 1 69.1 51.3 Q 69.1 38.4 72.8 28.8 A 60.927 60.927 0 0 1 76.842 20.251 A 45.781 45.781 0 0 1 82.15 12.8 A 44.58 44.58 0 0 1 87.906 7.299 A 33.98 33.98 0 0 1 94.25 3.3 A 35.391 35.391 0 0 1 99.35 1.293 Q 102.295 0.405 105.043 0.238 A 20.783 20.783 0 0 1 106.3 0.2 A 19.353 19.353 0 0 1 109.599 0.468 A 14.066 14.066 0 0 1 113.25 1.6 A 14.183 14.183 0 0 1 116.81 3.974 A 12.883 12.883 0 0 1 118.1 5.35 A 14.497 14.497 0 0 1 120.621 10.075 A 16.942 16.942 0 0 1 120.85 10.85 A 25.073 25.073 0 0 1 121.687 16.63 A 28.298 28.298 0 0 1 121.7 17.5 Z M 317.3 17.5 L 303.6 20.1 A 24.645 24.645 0 0 0 303.046 18.032 Q 302.399 16.002 301.532 14.815 A 5.772 5.772 0 0 0 301.2 14.4 Q 299.7 12.7 297.8 12.7 A 4.321 4.321 0 0 0 295.939 13.158 Q 294.528 13.83 292.979 15.486 A 20.204 20.204 0 0 0 292.3 16.25 Q 289.3 19.8 286.7 25.4 A 71.949 71.949 0 0 0 283.503 33.62 A 85.91 85.91 0 0 0 282.3 37.7 Q 280.5 44.4 280.3 50.9 Q 280.3 55.936 281.521 58.63 A 6.995 6.995 0 0 0 282.15 59.75 Q 284 62.4 286.9 62.4 A 8.904 8.904 0 0 0 289.426 62.019 A 11.711 11.711 0 0 0 291.05 61.4 A 12.136 12.136 0 0 0 294.78 58.679 A 13.834 13.834 0 0 0 294.9 58.55 A 16.683 16.683 0 0 0 297.449 54.862 A 19.05 19.05 0 0 0 297.75 54.25 A 13.401 13.401 0 0 0 298.972 49.44 A 15.507 15.507 0 0 0 299 48.9 L 288.3 50.5 L 290.2 40.6 Q 294.9 40 299.4 39.4 Q 303.2 38.9 307.45 38.2 Q 311.7 37.5 314.9 36.9 A 63.901 63.901 0 0 1 313.702 45.74 Q 312.679 50.58 310.9 54.65 Q 307.6 62.2 302.95 67.3 A 36.014 36.014 0 0 1 297.969 71.868 A 28.386 28.386 0 0 1 292.95 74.9 A 29.026 29.026 0 0 1 288.374 76.609 Q 285.522 77.394 282.842 77.4 A 18.4 18.4 0 0 1 282.8 77.4 Q 279.1 77.4 275.75 75.8 Q 272.4 74.2 269.95 70.95 A 20.973 20.973 0 0 1 267.703 67.16 Q 266.84 65.305 266.191 63.114 A 35.07 35.07 0 0 1 266.1 62.8 A 34.209 34.209 0 0 1 265.095 57.833 Q 264.774 55.374 264.714 52.598 A 59.874 59.874 0 0 1 264.7 51.3 Q 264.7 38.4 268.4 28.8 A 60.927 60.927 0 0 1 272.442 20.251 A 45.781 45.781 0 0 1 277.75 12.8 A 44.58 44.58 0 0 1 283.506 7.299 A 33.98 33.98 0 0 1 289.85 3.3 A 35.391 35.391 0 0 1 294.95 1.293 Q 297.895 0.405 300.643 0.238 A 20.783 20.783 0 0 1 301.9 0.2 A 19.353 19.353 0 0 1 305.199 0.468 A 14.066 14.066 0 0 1 308.85 1.6 A 14.183 14.183 0 0 1 312.41 3.974 A 12.883 12.883 0 0 1 313.7 5.35 A 14.497 14.497 0 0 1 316.221 10.075 A 16.942 16.942 0 0 1 316.45 10.85 A 25.073 25.073 0 0 1 317.287 16.63 A 28.298 28.298 0 0 1 317.3 17.5 Z M 417 70.1 L 384.7 75.1 L 397.8 4 L 429.4 1.3 Q 428.7 3.5 428.2 5.8 A 97.381 97.381 0 0 0 427.363 9.24 A 107.461 107.461 0 0 0 427.25 9.75 A 151.292 151.292 0 0 0 426.885 11.458 Q 426.723 12.239 426.587 12.941 A 87.26 87.26 0 0 0 426.5 13.4 Q 425.734 13.477 424.47 13.524 A 79.513 79.513 0 0 1 423.65 13.55 Q 421.8 13.6 419.7 13.65 Q 417.6 13.7 415.45 13.7 L 411.7 13.7 L 408.2 31.6 Q 411.3 31.4 414 31.3 Q 416.2 31.2 418.5 31.2 Q 420.8 31.2 421.9 31.1 Q 421.5 33.9 421.15 36.6 A 109.062 109.062 0 0 1 421.145 36.642 A 116.529 116.529 0 0 1 420.3 42.1 Q 419.337 42.196 417.216 42.246 A 126.455 126.455 0 0 1 417.05 42.25 Q 414.8 42.3 412.5 42.4 Q 409.9 42.5 406.8 42.6 L 403.4 61 L 418 58.7 L 417 70.1 Z M 338.1 57.9 L 329.4 57.9 L 325.4 72.3 A 204.667 204.667 0 0 1 323.638 72.532 Q 322.856 72.632 321.997 72.736 A 373.215 373.215 0 0 1 320.2 72.95 Q 317.2 73.3 314.6 73.6 Q 311.4 74 308.3 74.4 Q 312.3 61.1 316.2 48.2 Q 317.8 42.8 319.55 36.9 Q 321.3 31 323.05 25.15 Q 324.8 19.3 326.4 13.9 Q 328 8.5 329.2 4 Q 336 3.5 343.05 2.8 Q 350.1 2.1 356.8 0.9 Q 356.5 4.1 356.15 8.85 Q 355.8 13.6 355.5 19.2 A 2594.46 2594.46 0 0 0 355.05 27.881 A 2945.153 2945.153 0 0 0 354.9 30.9 Q 354.6 37 354.3 42.9 Q 353.8 56.7 353.2 72.2 Q 350.2 72.7 347.2 73 Q 344.7 73.4 341.7 73.9 L 336.3 74.8 Q 336.7 71.5 337.1 68.3 Q 337.4 65.5 337.65 62.7 A 627.498 627.498 0 0 1 337.83 60.712 Q 337.903 59.931 337.97 59.228 A 324.173 324.173 0 0 1 338.1 57.9 Z M 185.9 72.3 L 167.9 75.1 Q 170.2 64.1 172.3 53.4 Q 173.2 48.9 174.1 44 Q 175 39.1 175.85 34.35 Q 176.7 29.6 177.35 25.15 Q 178 20.7 178.5 17 A 26.863 26.863 0 0 0 175.022 16.775 A 27.561 27.561 0 0 0 173.85 16.8 Q 171.5 16.9 169.2 16.2 Q 169.286 14.825 169.298 13.081 A 83.837 83.837 0 0 0 169.3 12.5 Q 169.3 10.4 169.4 8.3 Q 169.5 6 169.6 3.4 Q 172.2 3.6 174.8 3.7 Q 177.4 3.8 180 3.8 Q 185.1 3.8 189.85 3.55 Q 194.6 3.3 198.65 2.95 Q 202.7 2.6 206.6 2.1 L 205.5 7.5 Q 205 9.8 204.55 12.2 A 126.512 126.512 0 0 1 204.22 13.902 Q 204.085 14.57 203.955 15.169 A 65.388 65.388 0 0 1 203.7 16.3 Q 201.5 16.9 199.25 17.15 Q 197 17.4 194.8 17.8 Q 194.1 21.2 193.3 25.35 A 368.165 368.165 0 0 0 191.938 32.842 A 405.858 405.858 0 0 0 191.75 33.95 Q 191 38.4 190.3 43 Q 189.6 47.6 188.9 51.8 Q 187.3 61.7 185.9 72.3 Z M 367.7 3.7 L 385.2 1.4 A 4459.118 4459.118 0 0 0 380.078 23.656 A 4109.026 4109.026 0 0 0 380 24 Q 378.9 28.7 377.8 33.75 Q 376.7 38.8 375.7 43.6 A 330.472 330.472 0 0 0 374.313 50.631 A 297.247 297.247 0 0 0 373.9 52.9 Q 373.1 57.4 372.6 60.9 Q 375.1 60.7 377.95 60.65 A 360.848 360.848 0 0 1 380.319 60.616 Q 381.763 60.6 383 60.6 Q 383.1 62.5 383.3 64.35 Q 383.5 66.2 383.75 67.7 Q 383.965 68.989 384.106 70.02 A 53.249 53.249 0 0 1 384.15 70.35 A 44.7 44.7 0 0 0 384.218 70.848 Q 384.305 71.463 384.372 71.779 A 3.58 3.58 0 0 0 384.4 71.9 A 23.585 23.585 0 0 1 383.038 71.862 A 21.484 21.484 0 0 1 382.85 71.85 A 23.04 23.04 0 0 0 381.499 71.801 A 25.303 25.303 0 0 0 381.3 71.8 A 107.776 107.776 0 0 0 376.872 71.895 A 126.725 126.725 0 0 0 374.75 72 Q 371.3 72.2 367.8 72.6 Q 364.3 73 360.95 73.65 Q 357.6 74.3 354.9 75.2 Q 355.5 70.7 356.3 65.2 Q 357.1 59.7 358.15 53.8 Q 359.2 47.9 360.25 41.9 A 500.3 500.3 0 0 1 361.853 33.181 A 441.651 441.651 0 0 1 362.4 30.4 Q 364.9 17.3 367.7 3.7 Z M 57.6 5 L 73.2 2.5 Q 70.9 15.9 68.7 28.8 Q 67.8 34.3 66.85 40.2 Q 65.9 46.1 64.95 51.9 A 694.675 694.675 0 0 0 63.402 61.782 A 629.799 629.799 0 0 0 63.2 63.15 Q 62.4 68.6 61.7 73 A 11.479 11.479 0 0 0 61.223 73.012 Q 60.22 73.055 58.15 73.25 A 180.118 180.118 0 0 0 53.049 73.807 A 196.366 196.366 0 0 0 52.7 73.85 A 737.714 737.714 0 0 0 50.077 74.182 Q 48.833 74.342 47.722 74.49 A 465.832 465.832 0 0 0 47.65 74.5 Q 45.4 74.8 45.2 74.9 Q 46.2 70.6 47.25 65.35 Q 48.3 60.1 49.4 54.35 Q 50.5 48.6 51.5 42.7 A 2085.484 2085.484 0 0 0 52.944 34.075 A 1872.934 1872.934 0 0 0 53.4 31.3 Q 55.5 18.5 57.6 5 Z M 208 5 L 223.6 2.5 Q 221.3 15.9 219.1 28.8 Q 218.2 34.3 217.25 40.2 Q 216.3 46.1 215.35 51.9 A 694.675 694.675 0 0 0 213.802 61.782 A 629.799 629.799 0 0 0 213.6 63.15 Q 212.8 68.6 212.1 73 A 11.479 11.479 0 0 0 211.623 73.012 Q 210.62 73.055 208.55 73.25 A 180.118 180.118 0 0 0 203.449 73.807 A 196.366 196.366 0 0 0 203.1 73.85 A 737.714 737.714 0 0 0 200.477 74.182 Q 199.233 74.342 198.122 74.49 A 465.832 465.832 0 0 0 198.05 74.5 Q 195.8 74.8 195.6 74.9 Q 196.6 70.6 197.65 65.35 Q 198.7 60.1 199.8 54.35 Q 200.9 48.6 201.9 42.7 A 2085.484 2085.484 0 0 0 203.344 34.075 A 1872.934 1872.934 0 0 0 203.8 31.3 Q 205.9 18.5 208 5 Z M 338 22.8 L 331.8 47.9 A 10.899 10.899 0 0 0 332.032 47.897 Q 332.355 47.89 332.898 47.866 A 97.941 97.941 0 0 0 333.25 47.85 Q 334.3 47.8 335.45 47.75 Q 336.6 47.7 337.6 47.65 Q 338.6 47.6 339 47.5 Q 339 46.947 339.127 45.674 A 64.141 64.141 0 0 1 339.15 45.45 A 124.263 124.263 0 0 0 339.291 44.003 Q 339.36 43.242 339.43 42.394 A 208.597 208.597 0 0 0 339.45 42.15 Q 339.6 40.3 339.8 38.1 Q 340 35.9 340.2 33.8 Q 340.6 28.7 341.2 22.8 L 341.8 14.1 L 340.3 14.2 L 338 22.8 Z" vector-effect="non-scaling-stroke"/></g></svg>